<?xml version="1.0" standalone="no"?>
<!DOCTYPE svg PUBLIC "-//W3C//DTD SVG 20010904//EN"
 "http://www.w3.org/TR/2001/REC-SVG-20010904/DTD/svg10.dtd">
<svg version="1.0" xmlns="http://www.w3.org/2000/svg"
 width="1280.000000pt" height="1280.000000pt" viewBox="0 0 1280.000000 1280.000000"
 preserveAspectRatio="xMidYMid meet">
<g transform="translate(0.000000,1280.000000) scale(0.100000,-0.100000)"
fill="#000000" stroke="none">
<path d="M1807 10215 c-134 -47 -173 -238 -66 -317 19 -14 48 -30 64 -36 17
-6 251 -59 520 -117 514 -112 525 -115 525 -166 0 -17 83 -1174 351 -4864 57
-786 49 -744 137 -787 l47 -23 3395 0 3396 0 49 25 c69 35 98 91 92 173 -7 76
-40 127 -104 158 l-48 24 -3270 3 c-1798 1 -3273 6 -3277 10 -10 10 -61 689
-54 709 4 11 591 13 3326 13 1826 0 3320 3 3320 8 0 4 153 873 340 1932 186
1059 336 1928 332 1931 -6 5 -4109 572 -6617 914 -539 74 -1025 141 -1080 150
-55 9 -366 75 -692 146 -325 71 -604 129 -620 129 -15 -1 -45 -7 -66 -15z
m2168 -755 c368 -50 673 -94 678 -99 12 -12 -43 -2052 -56 -2068 -7 -10 -139
-13 -597 -13 -458 0 -590 3 -598 13 -16 20 -174 2249 -160 2258 7 4 24 6 38 3
14 -3 326 -45 695 -94z m2123 -286 c554 -74 1011 -139 1016 -144 11 -11 -91
-1694 -105 -1727 l-9 -23 -992 0 c-546 0 -999 4 -1006 9 -11 6 -8 185 13 992
14 541 28 994 31 1007 3 14 12 22 25 22 11 0 473 -61 1027 -136z m2180 -292
c397 -54 727 -103 732 -108 11 -11 -97 -1430 -111 -1471 l-9 -23 -732 0 c-403
0 -739 4 -747 9 -11 7 -5 144 38 827 28 451 54 829 56 842 4 15 13 22 28 22
12 -1 347 -45 745 -98z m1642 -222 c577 -76 520 -65 520 -98 0 -60 -220 -1266
-232 -1274 -17 -11 -889 -10 -907 1 -11 7 -4 127 43 717 39 492 60 710 69 716
6 4 21 5 32 3 11 -3 225 -32 475 -65z m-5333 -1776 c9 -23 -28 -1434 -38
-1461 l-9 -23 -500 0 c-429 0 -501 2 -506 15 -8 21 -112 1458 -106 1473 3 9
128 12 578 12 524 0 575 -1 581 -16z m2396 4 c7 -20 -83 -1440 -93 -1465 l-10
-23 -965 0 c-853 0 -966 2 -971 15 -8 20 32 1460 40 1474 11 17 1992 15 1999
-1z m1882 0 c3 -7 -21 -341 -53 -741 -46 -580 -61 -730 -72 -738 -19 -11
-1430 -12 -1448 0 -11 7 -5 138 33 737 25 401 48 735 50 742 6 18 1483 18
1490 0z m1275 -16 c0 -15 -56 -347 -125 -738 -96 -541 -130 -712 -142 -721
-20 -15 -699 -19 -721 -4 -12 7 -4 134 44 737 31 401 62 735 67 742 7 9 108
12 443 12 l434 0 0 -28z"/>
<path d="M3879 3739 c-318 -30 -617 -245 -755 -543 -101 -219 -110 -501 -24
-724 105 -271 327 -482 596 -566 521 -162 1056 137 1200 670 15 55 19 103 18
234 0 150 -3 173 -27 253 -137 447 -543 719 -1008 676z"/>
<path d="M8833 3739 c-154 -14 -302 -67 -432 -154 -83 -56 -215 -189 -266
-269 -149 -234 -190 -531 -108 -790 83 -263 253 -456 518 -586 105 -52 177
-70 305 -77 288 -15 538 77 735 272 134 132 217 280 261 461 26 106 24 315 -4
428 -114 459 -536 758 -1009 715z"/>
</g>
</svg>
